<svg width="495" height="530" viewBox="0 0 495 530" fill="none" xmlns="http://www.w3.org/2000/svg">
<g clip-path="url(#clip0)">
<path d="M487.365 511.651C475.594 527.396 451.158 529.053 451.158 529.053C451.158 529.053 445.808 505.183 457.58 489.438C469.351 473.693 493.787 472.036 493.787 472.036C493.787 472.036 499.137 495.906 487.365 511.651Z" fill="#E6E6E6"/>
<path d="M427.399 517.57C435.166 527.959 451.291 529.053 451.291 529.053C451.291 529.053 454.821 513.302 447.053 502.912C439.285 492.523 423.161 491.429 423.161 491.429C423.161 491.429 419.631 507.18 427.399 517.57Z" fill="#E6E6E6"/>
<path d="M480.064 530H269.657V528.283H480.375L480.064 530Z" fill="#3F3D56"/>
<path d="M472.132 15.1664H0V277.131H472.132V15.1664Z" fill="#E6E6E6"/>
<path d="M25.7827 251.38H446.349V40.9166H25.7827V251.38Z" fill="white"/>
<path d="M471.442 0H0.690308V23.4389H471.442V0Z" fill="#3F3D56"/>
<path d="M135.235 115.126H49.6438V175.792H135.235V115.126Z" fill="#E6E6E6"/>
<path d="M422.488 115.126H186.422V122.02H422.488V115.126Z" fill="#E6E6E6"/>
<path d="M422.488 142.701H186.422V149.595H422.488V142.701Z" fill="#E6E6E6"/>
<path d="M422.488 170.277H186.422V177.17H422.488V170.277Z" fill="#E6E6E6"/>
<path d="M345.349 282.245L343.046 295.468C343.046 295.468 332.109 325.938 334.987 354.684C337.865 383.43 340.168 403.552 340.168 403.552C340.168 403.552 331.533 475.991 334.987 501.862C334.987 501.862 344.197 514.51 356.286 501.287L365.496 405.851L375.282 338.012L383.916 413.9L389.673 500.137C389.673 500.137 397.732 508.761 409.82 501.287L408.669 403.552C408.669 403.552 419.031 320.764 417.304 313.865C415.577 306.966 404.064 279.945 404.064 279.945L345.349 282.245Z" fill="#3F3D56"/>
<path d="M339.592 502.437L340.168 514.51C340.168 514.51 331.394 528.177 342.331 528.177C342.441 528.177 342.223 528.177 342.331 528.177C350.241 528.152 357.39 531.707 356.455 523.863L355.134 512.785L352.832 500.712L339.592 502.437Z" fill="#3F3D56"/>
<path d="M406.297 502.437L405.722 514.51C405.722 514.51 414.495 528.177 403.558 528.177C403.449 528.177 403.666 528.177 403.558 528.177C395.648 528.152 388.5 531.707 389.435 523.863L390.755 512.785L393.058 500.712L406.297 502.437Z" fill="#3F3D56"/>
<path d="M372.116 182.498C382.289 182.498 390.536 174.261 390.536 164.1C390.536 153.94 382.289 145.703 372.116 145.703C361.942 145.703 353.695 153.94 353.695 164.1C353.695 174.261 361.942 182.498 372.116 182.498Z" fill="#9F616A"/>
<path d="M364.057 176.173C364.057 176.173 366.359 202.619 359.452 206.644C352.544 210.668 388.234 208.944 388.234 208.944C388.234 208.944 380.175 177.898 380.75 174.449L364.057 176.173Z" fill="#FFB8B8"/>
<path d="M398.883 193.133C398.883 193.133 375.857 182.785 343.622 193.133C343.622 193.133 329.518 196.87 327.791 201.47C326.065 206.069 347.075 258.674 344.773 267.872C343.388 273.511 342.998 279.347 343.622 285.12C343.622 285.12 394.278 278.221 406.366 283.395C406.366 283.395 401.761 268.447 402.913 258.099C404.064 247.75 413.85 199.457 413.85 199.457C413.85 199.457 408.669 194.283 398.883 193.133Z" fill="#894EA5"/>
<path d="M419.03 329.963C419.03 329.963 410.396 356.409 419.606 356.984C428.816 357.559 424.787 336.862 424.787 336.862L423.636 329.963H419.03Z" fill="#9F616A"/>
<path d="M401.761 202.907L413.85 199.457C413.85 199.457 420.757 204.632 420.757 211.531C420.757 218.43 419.606 262.698 419.606 262.698L428.241 328.813L415.001 333.412L399.459 262.123L401.761 202.907Z" fill="#894EA5"/>
<path d="M324.626 329.963C324.626 329.963 333.26 356.409 324.05 356.984C314.84 357.559 318.869 336.862 318.869 336.862L320.02 329.963H324.626Z" fill="#9F616A"/>
<path d="M341.895 202.907L329.806 199.457C329.806 199.457 322.899 204.632 322.899 211.531C322.899 218.43 324.05 262.698 324.05 262.698L315.415 328.813L328.655 333.412L344.197 262.123L341.895 202.907Z" fill="#894EA5"/>
<path d="M380.175 137.079C380.175 137.079 364.057 134.205 360.603 155.477C357.149 176.748 358.876 184.797 353.12 187.097C347.363 189.396 345.636 192.271 346.788 196.87C347.939 201.47 351.968 203.194 346.212 211.818C340.456 220.442 358.876 218.142 373.843 225.041C388.809 231.94 423.348 222.167 418.743 214.118C414.138 206.069 406.654 209.518 410.108 200.32C413.562 191.121 414.713 189.396 410.108 183.647C405.503 177.898 412.411 142.254 380.175 137.079Z" fill="#3F3D56"/>
</g>
<defs>
<clipPath id="clip0">
<rect width="495" height="530" fill="white"/>
</clipPath>
</defs>
</svg>
