<svg width="629" height="488" viewBox="0 0 629 488" fill="none" xmlns="http://www.w3.org/2000/svg">
<rect x="293" y="220" width="178" height="178" fill="#F72FFB" fill-opacity="0.13"/>
<rect x="119" y="26" width="222" height="222" fill="#00D1FF" fill-opacity="0.22"/>
<path d="M291.485 488C452.467 488 582.97 483.692 582.97 478.377C582.97 473.062 452.467 468.754 291.485 468.754C130.502 468.754 0 473.062 0 478.377C0 483.692 130.502 488 291.485 488Z" fill="#E6E6E6"/>
<path d="M287.108 156.436C306.929 156.436 322.997 140.377 322.997 120.568C322.997 100.758 306.929 84.6994 287.108 84.6994C267.287 84.6994 251.22 100.758 251.22 120.568C251.22 140.377 267.287 156.436 287.108 156.436Z" fill="#3E3D57"/>
<path d="M277.615 203.502L261.376 191.081L203.237 296.325C201.411 296.656 199.723 297.518 198.384 298.802C197.044 300.085 196.112 301.735 195.704 303.544C195.296 305.354 195.43 307.243 196.089 308.977C196.748 310.711 197.903 312.213 199.41 313.295C200.917 314.377 202.71 314.992 204.564 315.064C206.419 315.135 208.253 314.659 209.839 313.696C211.425 312.732 212.691 311.323 213.482 309.645C214.272 307.967 214.55 306.093 214.283 304.258L277.615 203.502Z" fill="#FFB8B8"/>
<path d="M425.848 263.236C425.184 261.316 423.919 259.66 422.24 258.515C420.561 257.37 418.558 256.795 416.526 256.877L322.852 183.438L308.802 198.287L407.483 267.031C407.584 268.371 407.969 269.674 408.613 270.853C409.257 272.032 410.146 273.061 411.219 273.869C412.293 274.678 413.527 275.249 414.838 275.544C416.15 275.839 417.509 275.85 418.826 275.578C420.142 275.306 421.386 274.757 422.473 273.966C423.56 273.176 424.466 272.163 425.131 270.995C425.795 269.827 426.203 268.531 426.327 267.193C426.45 265.855 426.287 264.506 425.848 263.236Z" fill="#FFB8B8"/>
<path d="M317.132 468.068H328.168L333.42 425.525H317.132V468.068Z" fill="#FFB8B8"/>
<path d="M349.451 478.309H314.767V464.916H336.05C339.604 464.916 343.013 466.327 345.526 468.839C348.039 471.35 349.451 474.757 349.451 478.309V478.309Z" fill="#3E3D57"/>
<path d="M229.687 458.22L239.826 462.575L261.459 425.562L246.495 419.134L229.687 458.22Z" fill="#FFB8B8"/>
<path d="M255.334 480.383L223.469 466.696L228.76 454.392L248.314 462.791C251.579 464.193 254.153 466.834 255.47 470.134C256.786 473.433 256.738 477.12 255.334 480.383V480.383V480.383Z" fill="#3E3D57"/>
<path d="M264.085 264.084L211.588 429.372L280.491 436.75L287.108 340.152L296.076 436.75L351.855 430.191C351.855 430.191 341.779 277.201 323.439 267.363C305.099 257.526 264.085 264.084 264.085 264.084Z" fill="#3E3D57"/>
<path d="M292.55 165.083C305.235 165.083 315.518 154.805 315.518 142.128C315.518 129.45 305.235 119.173 292.55 119.173C279.865 119.173 269.582 129.45 269.582 142.128C269.582 154.805 279.865 165.083 292.55 165.083Z" fill="#FFB8B8"/>
<path d="M291.814 271.494C275.866 271.494 260.519 270.787 259.728 269.417C259.66 269.302 259.635 269.167 259.655 269.035C259.676 268.904 259.741 268.783 259.84 268.694C260.937 267.079 258.361 240.833 252.937 198.5C252.322 193.543 253.419 188.524 256.047 184.275C258.675 180.025 262.676 176.8 267.387 175.132L267.488 175.109L315.556 170.365L316.095 170.516C320.85 171.838 325.013 174.736 327.902 178.736C330.79 182.735 332.231 187.598 331.989 192.524C330.749 219.529 328.67 265.267 328.67 268.183C328.67 268.977 327.565 269.374 326.602 269.632C321.922 270.885 306.61 271.494 291.814 271.494Z" fill="#3E3D57"/>
<path d="M97.7316 80.6757L44.1349 147.616L111.113 201.183L164.709 134.242L97.7316 80.6757Z" fill="#F2F2F2"/>
<path d="M110.647 216.212C106.882 215.638 103.372 213.962 100.56 211.394C97.7482 208.826 95.7613 205.483 94.8507 201.787C93.9401 198.091 94.1466 194.208 95.4441 190.629C96.7416 187.05 99.0718 183.936 102.14 181.681C105.208 179.425 108.877 178.13 112.682 177.958C116.487 177.787 120.257 178.747 123.516 180.717C126.775 182.687 129.376 185.579 130.991 189.026C132.605 192.474 133.161 196.323 132.587 200.086C132.206 202.584 131.336 204.984 130.027 207.146C128.718 209.309 126.996 211.193 124.959 212.69C122.922 214.188 120.609 215.269 118.154 215.874C115.698 216.478 113.147 216.593 110.647 216.212V216.212ZM116.188 179.888C112.765 179.367 109.264 179.872 106.128 181.339C102.992 182.806 100.362 185.169 98.5698 188.13C96.7778 191.091 95.9046 194.517 96.0607 197.974C96.2167 201.431 97.3949 204.764 99.4463 207.552C101.498 210.34 104.33 212.457 107.586 213.636C110.841 214.814 114.373 215.002 117.735 214.175C121.097 213.347 124.138 211.542 126.474 208.987C128.809 206.433 130.334 203.243 130.856 199.822V199.822C131.55 195.235 130.396 190.561 127.646 186.824C124.896 183.087 120.775 180.593 116.188 179.888V179.888Z" fill="#894EA5"/>
<path d="M69.6567 433.223C63.0831 455.169 73.2853 477.607 73.2853 477.607C73.2853 477.607 94.1455 464.463 100.719 442.517C107.293 420.57 97.0906 398.132 97.0906 398.132C97.0906 398.132 76.2304 411.276 69.6567 433.223Z" fill="#E6E6E6"/>
<path d="M79.6376 433.816C85.1703 456.048 73.9225 477.981 73.9225 477.981C73.9225 477.981 53.7045 463.87 48.1719 441.638C42.6392 419.407 53.887 397.474 53.887 397.474C53.887 397.474 74.105 411.585 79.6376 433.816Z" fill="#E6E6E6"/>
<path d="M260.251 126.924C272.465 133.57 286.213 136.89 300.115 136.551C305.44 136.412 311.307 135.444 314.68 131.323C318.485 126.673 317.533 119.408 313.862 114.651C310.192 109.894 304.449 107.213 298.721 105.394C293.301 103.673 287.493 102.565 281.935 103.768C279.002 104.403 276.24 105.661 273.837 107.458C271.434 109.255 269.446 111.548 268.009 114.182C266.572 116.815 265.719 119.727 265.508 122.719C265.297 125.711 265.734 128.713 266.788 131.522" fill="#3E3D57"/>
<path d="M261.724 115.319C272.842 115.319 281.856 106.31 281.856 95.1974C281.856 84.0848 272.842 75.0761 261.724 75.0761C250.605 75.0761 241.591 84.0848 241.591 95.1974C241.591 106.31 250.605 115.319 261.724 115.319Z" fill="#3E3D57"/>
<path d="M625.522 97.4285L546.494 51.3936L556.631 34.0096C556.921 33.5133 557.11 32.9649 557.187 32.3957C557.264 31.8265 557.229 31.2476 557.082 30.6921C556.936 30.1367 556.681 29.6155 556.333 29.1583C555.985 28.7012 555.551 28.317 555.054 28.0277C554.558 27.7385 554.009 27.5498 553.439 27.4724C552.87 27.3951 552.291 27.4307 551.735 27.5771C551.179 27.7235 550.658 27.9778 550.2 28.3256C549.743 28.6734 549.358 29.1079 549.069 29.6042L538.931 46.9882L459.903 0.953193C458.298 0.0185173 456.388 -0.240818 454.592 0.232228C452.796 0.705274 451.262 1.87195 450.326 3.47562L388.618 109.292C387.683 110.896 387.423 112.805 387.897 114.6C388.37 116.395 389.537 117.928 391.142 118.863L470.171 164.898L400.969 283.563C400.68 284.06 400.491 284.608 400.413 285.177C400.336 285.747 400.371 286.326 400.518 286.881C400.664 287.437 400.919 287.958 401.267 288.415C401.615 288.873 402.049 289.257 402.546 289.546C403.043 289.835 403.592 290.024 404.161 290.101C404.731 290.179 405.31 290.143 405.866 289.997C406.422 289.85 406.944 289.595 407.401 289.247C407.858 288.899 408.243 288.465 408.532 287.968L477.733 169.303L556.762 215.338C557.556 215.801 558.434 216.103 559.346 216.226C560.257 216.35 561.183 216.293 562.073 216.059C562.962 215.825 563.796 215.418 564.528 214.861C565.26 214.305 565.875 213.609 566.338 212.815L628.046 106.999C628.509 106.205 628.811 105.328 628.935 104.417C629.059 103.506 629.002 102.58 628.768 101.691C628.533 100.803 628.126 99.9688 627.569 99.2374C627.012 98.5059 626.317 97.8913 625.522 97.4285V97.4285Z" fill="#3F3D56"/>
<path opacity="0.1" d="M515.913 161.165C518.347 156.991 507.454 146.112 491.583 136.867C475.711 127.622 460.872 123.511 458.437 127.686C456.003 131.86 466.896 142.739 482.767 151.984C498.639 161.229 513.478 165.34 515.913 161.165Z" fill="black"/>
<path d="M508.332 150.138C531.537 150.138 550.348 131.337 550.348 108.146C550.348 84.9539 531.537 66.1533 508.332 66.1533C485.128 66.1533 466.316 84.9539 466.316 108.146C466.316 131.337 485.128 150.138 508.332 150.138Z" fill="#894EA5"/>
<path d="M526.612 128.92C524.178 133.094 507.008 135.727 494.478 128.428C481.948 121.129 478.803 106.662 481.237 102.488C483.671 98.3138 490.763 106.012 503.293 113.311C515.824 120.61 529.046 124.745 526.612 128.92Z" fill="#F2F2F2"/>
<path d="M499.188 94.3533C504.022 94.3533 507.941 90.4365 507.941 85.6049C507.941 80.7733 504.022 76.8565 499.188 76.8565C494.353 76.8565 490.434 80.7733 490.434 85.6049C490.434 90.4365 494.353 94.3533 499.188 94.3533Z" fill="#F2F2F2"/>
<path d="M530.95 112.855C535.785 112.855 539.704 108.939 539.704 104.107C539.704 99.2754 535.785 95.3586 530.95 95.3586C526.116 95.3586 522.197 99.2754 522.197 104.107C522.197 108.939 526.116 112.855 530.95 112.855Z" fill="#F2F2F2"/>
</svg>
