<svg width="631" height="573" viewBox="0 0 631 573" fill="none" xmlns="http://www.w3.org/2000/svg">
<circle cx="251.5" cy="251.5" r="251.5" fill="#C4C4C4"/>
<g clip-path="url(#clip0)">
<path d="M489.619 362.785V497.039L512.07 533.637L513.779 536.421H602.366L604.156 362.785H489.619Z" fill="#E6E6E6"/>
<path opacity="0.1" d="M489.619 362.785V497.039L512.07 533.637L513.448 362.785H489.619Z" fill="black"/>
<path d="M275.756 359.205V493.46L253.305 530.057L251.596 532.84H163.009L161.219 359.205H275.756Z" fill="#E6E6E6"/>
<path opacity="0.1" d="M275.756 359.205V493.46L253.305 530.057L251.927 359.205H275.756Z" fill="black"/>
<path d="M631 356.52V364.575H149.587V352.94L194.328 329.669H591.628L631 356.52Z" fill="#E6E6E6"/>
<path opacity="0.1" d="M631 356.52V364.575H149.587V352.94L631 356.52Z" fill="black"/>
<path d="M218.488 396.796H197.012L188.064 390.531H228.331L218.488 396.796Z" fill="#3F3D56"/>
<path d="M218.488 422.752H197.012L188.064 416.487H228.331L218.488 422.752Z" fill="#3F3D56"/>
<path d="M218.488 459.449H197.012L188.064 453.183H228.331L218.488 459.449Z" fill="#3F3D56"/>
<path d="M218.488 496.145H197.012L188.064 489.88H228.331L218.488 496.145Z" fill="#3F3D56"/>
<path d="M546.887 400.376H568.363L577.311 394.111H537.044L546.887 400.376Z" fill="#3F3D56"/>
<path d="M546.887 426.332H568.363L577.311 420.067H537.044L546.887 426.332Z" fill="#3F3D56"/>
<path d="M546.887 463.029H568.363L577.311 456.764H537.044L546.887 463.029Z" fill="#3F3D56"/>
<path d="M546.887 499.725H568.363L577.311 493.46H537.044L546.887 499.725Z" fill="#3F3D56"/>
<path d="M561.511 174.417H380.716C379.818 174.417 378.929 174.594 378.099 174.938C377.269 175.281 376.516 175.785 375.881 176.42C375.246 177.055 374.742 177.809 374.399 178.639C374.055 179.469 373.878 180.358 373.878 181.256V303.073C373.878 303.972 374.055 304.861 374.399 305.691C374.742 306.521 375.246 307.275 375.881 307.91C376.516 308.545 377.269 309.048 378.099 309.392C378.929 309.736 379.818 309.913 380.716 309.912H449.347L446.776 326.333C446.776 326.333 432.082 334.141 442.414 334.371C452.746 334.6 501.421 334.371 501.421 334.371C501.421 334.371 510.834 334.371 495.91 326.103L493.492 309.912H561.511C562.409 309.913 563.299 309.736 564.128 309.392C564.958 309.048 565.712 308.545 566.347 307.91C566.981 307.275 567.485 306.521 567.829 305.691C568.172 304.861 568.349 303.972 568.349 303.073V181.256C568.349 180.358 568.172 179.469 567.829 178.639C567.485 177.809 566.981 177.055 566.347 176.42C565.712 175.785 564.958 175.281 564.128 174.938C563.299 174.594 562.409 174.417 561.511 174.417Z" fill="#3F3D56"/>
<path d="M561.805 181.651H380.422V283.158H561.805V181.651Z" fill="#741CE3"/>
<path d="M471.114 179.584C471.748 179.584 472.262 179.07 472.262 178.436C472.262 177.802 471.748 177.288 471.114 177.288C470.48 177.288 469.966 177.802 469.966 178.436C469.966 179.07 470.48 179.584 471.114 179.584Z" fill="#F2F2F2"/>
<path d="M471.114 304.975C473.523 304.975 475.476 303.021 475.476 300.612C475.476 298.202 473.523 296.248 471.114 296.248C468.704 296.248 466.751 298.202 466.751 300.612C466.751 303.021 468.704 304.975 471.114 304.975Z" fill="#F2F2F2"/>
<path d="M464.316 346.772V349.069H340.792V347.231L340.961 346.772L344.006 338.504H461.79L464.316 346.772Z" fill="#3F3D56"/>
<path d="M511.852 344.524C511.627 345.486 510.777 346.501 508.858 347.461C501.97 350.906 487.964 346.542 487.964 346.542C487.964 346.542 477.173 344.705 477.173 339.882C477.476 339.675 477.792 339.487 478.119 339.32C481.015 337.787 490.617 334.006 507.642 339.48C508.896 339.874 510.017 340.608 510.878 341.601C511.26 341.976 511.547 342.437 511.716 342.945C511.886 343.453 511.932 343.994 511.852 344.524Z" fill="#3F3D56"/>
<path opacity="0.1" d="M511.852 344.524C503.421 347.755 495.906 347.996 488.194 342.638C485.278 340.481 481.746 339.318 478.119 339.32C481.015 337.787 490.617 334.006 507.642 339.48C508.896 339.874 510.017 340.608 510.878 341.601C511.26 341.976 511.547 342.437 511.717 342.945C511.886 343.453 511.932 343.994 511.852 344.524Z" fill="black"/>
<path d="M501.281 342.638C502.93 342.638 504.266 342.227 504.266 341.719C504.266 341.212 502.93 340.801 501.281 340.801C499.633 340.801 498.296 341.212 498.296 341.719C498.296 342.227 499.633 342.638 501.281 342.638Z" fill="#F2F2F2"/>
<path opacity="0.1" d="M464.316 346.772V349.069H340.792V347.231L340.961 346.772H464.316Z" fill="black"/>
<path d="M183.681 87.0001C182.428 86.8971 181.172 87.1776 180.082 87.8044C179.011 88.538 178.336 89.8231 177.647 91.019C175.013 95.6458 171.446 99.6751 167.174 102.852C164.062 105.132 160.106 107.975 160.638 112.179C160.919 113.567 161.432 114.898 162.155 116.116C165.026 121.913 172.86 126.392 172.089 133.006C174.941 128.23 171.126 125.869 173.978 121.093C175.337 118.818 177.696 116.251 179.747 117.679C180.434 118.158 180.884 119.015 181.599 119.435C183.305 120.436 185.12 118.522 186.63 117.166C191.837 112.491 199.242 113.715 205.722 115.172C208.781 115.86 212.141 116.762 213.95 119.687C216.327 123.532 211.691 127.684 210.519 132.031C210.424 132.402 210.419 132.79 210.506 133.163C210.593 133.535 210.769 133.881 211.019 134.171C211.268 134.46 211.585 134.685 211.94 134.826C212.296 134.967 212.68 135.02 213.061 134.979C215.005 134.788 217.308 134.63 217.423 133.777C219.869 133.864 222.867 133.587 223.915 131.039C224.235 130.031 224.405 128.981 224.417 127.924C224.802 123.644 226.618 119.74 227.821 115.666C229.024 111.593 229.547 106.819 227.517 103.208C226.792 102.006 225.896 100.917 224.857 99.9745C213.336 88.8226 198.189 86.9835 183.681 87.0001Z" fill="#3E3D57"/>
<path d="M174.595 141.36C174.595 141.36 177.1 162.245 167.913 163.916C158.726 165.587 176.265 193.99 176.265 193.99L218.025 199.002L208.003 165.587C208.003 165.587 201.321 163.08 205.497 146.372C209.673 129.664 174.595 141.36 174.595 141.36Z" fill="#FFB8B8"/>
<path d="M149.121 500.164L152.462 546.111H170.001L164.99 500.164H149.121Z" fill="#FFB8B8"/>
<path d="M277.742 413.282L280.248 451.71L299.458 443.357L291.94 411.612L277.742 413.282Z" fill="#FFB8B8"/>
<path d="M136.593 324.73C136.593 324.73 137.428 373.183 142.439 389.056C147.451 404.928 146.615 405.764 145.78 408.27C144.945 410.776 144.11 409.105 144.11 413.282C144.11 417.459 142.439 483.456 144.11 489.304C145.78 495.151 139.099 505.176 144.11 506.012C149.121 506.847 172.507 506.012 173.342 500.999C174.177 495.987 166.66 494.316 170.001 490.974C173.342 487.633 178.353 419.13 178.353 419.13L190.046 371.512L211.761 346.45H257.697L271.896 401.587C271.896 401.587 266.049 417.459 270.225 417.459C274.402 417.459 299.458 422.472 299.458 404.093C299.458 385.714 291.106 331.413 289.435 329.742C287.765 328.072 290.27 322.224 287.765 319.718C285.259 317.211 256.027 299.668 245.169 296.326C234.312 292.985 219.08 289.008 219.08 289.008L136.593 324.73Z" fill="#3E3D57"/>
<path d="M299.458 436.674C299.458 436.674 286.93 432.497 281.083 445.028C275.237 457.558 277.742 460.9 277.742 460.9C277.742 460.9 296.952 467.583 300.293 464.242C301.746 462.788 306.362 462.283 311.113 462.176C318.348 462.014 320.274 451.774 313.44 449.39C313.236 449.319 313.03 449.257 312.821 449.204C306.139 447.534 299.458 436.674 299.458 436.674Z" fill="#3E3D57"/>
<path d="M193.387 155.144C207.225 155.144 218.443 143.923 218.443 130.082C218.443 116.241 207.225 105.02 193.387 105.02C179.549 105.02 168.331 116.241 168.331 130.082C168.331 143.923 179.549 155.144 193.387 155.144Z" fill="#FFB8B8"/>
<path d="M160.814 174.358C160.814 174.358 201.739 182.712 211.761 169.346C221.784 155.979 225.96 206.939 225.96 206.939L230.971 260.404L223.454 289.643C223.454 289.643 184.2 321.388 171.672 323.895C159.143 326.401 139.934 328.072 139.934 328.072C139.934 328.072 145.78 235.342 145.78 233.672C145.78 232.001 160.814 174.358 160.814 174.358Z" fill="white"/>
<path d="M173.26 158.691C173.26 158.691 164.155 153.473 161.649 158.486C159.143 163.498 135.758 176.029 133.252 176.029C130.747 176.029 138.263 245.367 134.923 253.721C131.582 262.075 115.713 323.059 124.9 328.072C134.087 333.084 127.406 323.059 136.593 335.59C145.78 348.121 190.881 348.121 193.387 343.109C195.892 338.096 173.342 300.503 177.518 265.417C181.694 230.33 188.376 181.877 182.529 175.194C176.683 168.51 173.26 158.691 173.26 158.691Z" fill="#3E3D57"/>
<path d="M203.409 164.333L204.573 160.329C204.573 160.329 239.323 171.852 240.993 179.371C242.664 186.889 241.829 239.519 235.982 243.696C230.136 247.873 221.784 254.557 227.63 264.581C233.477 274.606 240.158 285.466 245.169 286.302C250.181 287.137 259.368 292.985 256.862 298.833C254.357 304.68 224.289 293.82 224.289 293.82C224.289 293.82 204.244 278.783 205.08 255.392C205.915 232.001 203.409 164.333 203.409 164.333Z" fill="#3E3D57"/>
<path d="M232.641 262.911L212.596 300.503C212.596 300.503 183.364 330.578 200.068 333.919C216.773 337.261 225.96 306.351 225.96 306.351L247.675 275.442L232.641 262.911Z" fill="#FFB8B8"/>
<path d="M184.902 93.5575C183.892 93.4827 182.88 93.6789 181.972 94.126C181.15 94.7262 180.473 95.5025 179.99 96.398C177.762 99.7498 174.858 102.598 171.464 104.761C168.931 106.373 165.711 108.382 166.144 111.354C166.379 112.35 166.798 113.294 167.379 114.137C169.724 118.275 170.657 123.064 170.038 127.781L177.003 117.654C178.109 116.046 180.03 114.232 181.699 115.241C182.258 115.579 182.625 116.186 183.207 116.482C184.596 117.19 186.073 115.837 187.302 114.879C191.541 111.574 197.569 112.44 202.844 113.469C205.334 113.955 208.07 114.593 209.542 116.66C211.988 120.095 209.434 125.058 210.861 129.026C211.261 128.747 211.6 128.389 211.859 127.976C212.118 127.562 212.292 127.101 212.369 126.619C214.361 126.681 216.801 126.485 217.654 124.684C217.913 123.978 218.052 123.234 218.063 122.482C218.376 119.457 219.854 116.698 220.834 113.819C221.813 110.94 222.239 107.566 220.586 105.013C219.981 104.148 219.252 103.378 218.421 102.728C209.042 94.8457 196.712 93.5458 184.902 93.5575Z" fill="#3E3D57"/>
<path d="M232.641 176.029L240.423 178.095C240.423 178.095 258.533 224.482 254.357 256.227C250.181 287.973 247.675 281.289 247.675 281.289C247.675 281.289 240.993 266.252 225.96 269.594L232.641 176.029Z" fill="#3E3D57"/>
<path d="M150.278 540.038C148.264 542.776 148.668 546.689 146.884 549.582C145.337 552.09 142.423 553.404 140.489 555.626C139.871 556.365 139.321 557.156 138.844 557.992C137.05 560.998 135.592 564.851 137.359 567.874C138.78 570.305 141.769 571.255 144.509 571.903C147.973 572.722 151.572 573.377 155.076 572.751C158.579 572.126 162.004 569.98 163.253 566.646C163.499 565.808 163.79 564.984 164.127 564.178C166.026 560.439 171.983 560.398 173.927 556.682C175.287 554.081 174.037 550.937 172.787 548.281L168.97 540.169C167.703 537.478 162.568 539.026 159.891 538.381C156.399 537.539 152.79 536.612 150.278 540.038Z" fill="#3E3D57"/>
<path d="M122.395 279.618L157.473 333.919C157.473 333.919 179.188 361.488 185.87 348.957C192.552 336.426 162.484 315.541 162.484 315.541L139.934 273.771L122.395 279.618Z" fill="#FFB8B8"/>
<path d="M139.934 177.7L133.252 176.029C133.252 176.029 119.889 180.206 116.548 197.749C113.207 215.293 115.713 285.466 119.889 286.302C124.065 287.137 140.514 274.083 143.147 276.851C145.78 279.618 137.428 265.417 139.934 257.898C142.439 250.38 139.934 177.7 139.934 177.7Z" fill="#3E3D57"/>
<path d="M453.946 214.989H432.359V220.187H453.946V214.989Z" fill="white"/>
<path d="M528.7 214.989H521.105V220.187H528.7V214.989Z" fill="white"/>
<path d="M543.89 214.989H536.295V220.187H543.89V214.989Z" fill="white"/>
<path d="M513.109 214.989H461.541V220.187H513.109V214.989Z" fill="white"/>
<path d="M426.763 248.577H405.176V253.775H426.763V248.577Z" fill="white"/>
<path d="M501.517 248.577H493.921V253.775H501.517V248.577Z" fill="white"/>
<path d="M516.707 248.577H509.112V253.775H516.707V248.577Z" fill="white"/>
<path d="M485.926 248.577H434.358V253.775H485.926V248.577Z" fill="white"/>
<path d="M515.908 226.585H494.321V231.783H515.908V226.585Z" fill="white"/>
<path d="M545.09 226.585H523.503V231.783H545.09V226.585Z" fill="white"/>
<path d="M412.771 226.585H405.176V231.783H412.771V226.585Z" fill="white"/>
<path d="M427.962 226.585H420.367V231.783H427.962V226.585Z" fill="white"/>
<path d="M487.125 226.585H435.557V231.783H487.125V226.585Z" fill="white"/>
<path d="M471.135 237.781H449.549V242.979H471.135V237.781Z" fill="white"/>
<path d="M441.953 237.781H420.367V242.979H441.953V237.781Z" fill="white"/>
<path d="M412.771 237.781H405.176V242.979H412.771V237.781Z" fill="white"/>
<path d="M545.09 237.781H537.494V242.979H545.09V237.781Z" fill="white"/>
<path d="M529.899 237.781H478.331V242.979H529.899V237.781Z" fill="white"/>
</g>
<defs>
<clipPath id="clip0">
<rect width="516" height="486" fill="white" transform="translate(115 87)"/>
</clipPath>
</defs>
</svg>
