<svg width="107" height="75" viewBox="0 0 107 75" fill="none" xmlns="http://www.w3.org/2000/svg">
<path d="M22.4688 33.6562C21.2396 33.4896 20.1562 33.4062 19.2188 33.4062C15.8021 33.4062 13.5625 34.5625 12.5 36.875V59H3.46875V25.1875H12L12.25 29.2188C14.0625 26.1146 16.5729 24.5625 19.7812 24.5625C20.7812 24.5625 21.7188 24.6979 22.5938 24.9688L22.4688 33.6562ZM36.375 59H27.3125V25.1875H36.375V59ZM26.7812 16.4375C26.7812 15.0833 27.2292 13.9688 28.125 13.0938C29.0417 12.2188 30.2812 11.7812 31.8438 11.7812C33.3854 11.7812 34.6146 12.2188 35.5312 13.0938C36.4479 13.9688 36.9062 15.0833 36.9062 16.4375C36.9062 17.8125 36.4375 18.9375 35.5 19.8125C34.5833 20.6875 33.3646 21.125 31.8438 21.125C30.3229 21.125 29.0938 20.6875 28.1562 19.8125C27.2396 18.9375 26.7812 17.8125 26.7812 16.4375ZM54.2188 51.7188H70.75V59H42.6875V53.5L58.5938 32.5H43.1562V25.1875H70.25V30.5312L54.2188 51.7188ZM85.9688 25.1875V60.8438C85.9688 64.5729 84.9792 67.4688 83 69.5312C81.0208 71.6146 78.1667 72.6562 74.4375 72.6562C72.875 72.6562 71.3854 72.4792 69.9688 72.125V64.9688C71.0521 65.1562 72 65.25 72.8125 65.25C75.5417 65.25 76.9062 63.8021 76.9062 60.9062V25.1875H85.9688ZM76.1875 16.4375C76.1875 15.0833 76.6354 13.9688 77.5312 13.0938C78.4479 12.2188 79.6875 11.7812 81.25 11.7812C82.8125 11.7812 84.0417 12.2188 84.9375 13.0938C85.8542 13.9688 86.3125 15.0833 86.3125 16.4375C86.3125 17.8125 85.8438 18.9375 84.9062 19.8125C83.9896 20.6875 82.7708 21.125 81.25 21.125C79.7292 21.125 78.5 20.6875 77.5625 19.8125C76.6458 18.9375 76.1875 17.8125 76.1875 16.4375ZM102.562 59H93.5V25.1875H102.562V59ZM92.9688 16.4375C92.9688 15.0833 93.4167 13.9688 94.3125 13.0938C95.2292 12.2188 96.4688 11.7812 98.0312 11.7812C99.5729 11.7812 100.802 12.2188 101.719 13.0938C102.635 13.9688 103.094 15.0833 103.094 16.4375C103.094 17.8125 102.625 18.9375 101.688 19.8125C100.771 20.6875 99.5521 21.125 98.0312 21.125C96.5104 21.125 95.2812 20.6875 94.3438 19.8125C93.4271 18.9375 92.9688 17.8125 92.9688 16.4375Z" fill="white"/>
<mask id="mask0" mask-type="alpha" maskUnits="userSpaceOnUse" x="3" y="11" width="101" height="62">
<path d="M22.4688 33.6562C21.2396 33.4896 20.1562 33.4062 19.2188 33.4062C15.8021 33.4062 13.5625 34.5625 12.5 36.875V59H3.46875V25.1875H12L12.25 29.2188C14.0625 26.1146 16.5729 24.5625 19.7812 24.5625C20.7812 24.5625 21.7188 24.6979 22.5938 24.9688L22.4688 33.6562ZM36.375 59H27.3125V25.1875H36.375V59ZM26.7812 16.4375C26.7812 15.0833 27.2292 13.9688 28.125 13.0938C29.0417 12.2188 30.2812 11.7812 31.8438 11.7812C33.3854 11.7812 34.6146 12.2188 35.5312 13.0938C36.4479 13.9688 36.9062 15.0833 36.9062 16.4375C36.9062 17.8125 36.4375 18.9375 35.5 19.8125C34.5833 20.6875 33.3646 21.125 31.8438 21.125C30.3229 21.125 29.0938 20.6875 28.1562 19.8125C27.2396 18.9375 26.7812 17.8125 26.7812 16.4375ZM54.2188 51.7188H70.75V59H42.6875V53.5L58.5938 32.5H43.1562V25.1875H70.25V30.5312L54.2188 51.7188ZM85.9688 25.1875V60.8438C85.9688 64.5729 84.9792 67.4688 83 69.5312C81.0208 71.6146 78.1667 72.6562 74.4375 72.6562C72.875 72.6562 71.3854 72.4792 69.9688 72.125V64.9688C71.0521 65.1562 72 65.25 72.8125 65.25C75.5417 65.25 76.9062 63.8021 76.9062 60.9062V25.1875H85.9688ZM76.1875 16.4375C76.1875 15.0833 76.6354 13.9688 77.5312 13.0938C78.4479 12.2188 79.6875 11.7812 81.25 11.7812C82.8125 11.7812 84.0417 12.2188 84.9375 13.0938C85.8542 13.9688 86.3125 15.0833 86.3125 16.4375C86.3125 17.8125 85.8438 18.9375 84.9062 19.8125C83.9896 20.6875 82.7708 21.125 81.25 21.125C79.7292 21.125 78.5 20.6875 77.5625 19.8125C76.6458 18.9375 76.1875 17.8125 76.1875 16.4375ZM102.562 59H93.5V25.1875H102.562V59ZM92.9688 16.4375C92.9688 15.0833 93.4167 13.9688 94.3125 13.0938C95.2292 12.2188 96.4688 11.7812 98.0312 11.7812C99.5729 11.7812 100.802 12.2188 101.719 13.0938C102.635 13.9688 103.094 15.0833 103.094 16.4375C103.094 17.8125 102.625 18.9375 101.688 19.8125C100.771 20.6875 99.5521 21.125 98.0312 21.125C96.5104 21.125 95.2812 20.6875 94.3438 19.8125C93.4271 18.9375 92.9688 17.8125 92.9688 16.4375Z" fill="white"/>
</mask>
<g mask="url(#mask0)">
<path d="M172.5 55C46.9 58.6 -23.5 23.8333 -34.5 -0.5C-29.3333 27.8333 -5.79997 84.9 -0.999969 88.5C5.00003 93 82.5 91.5 92 91.5C101.5 91.5 329.5 50.5 172.5 55Z" fill="url(#paint0_linear)"/>
</g>
<defs>
<linearGradient id="paint0_linear" x1="95.2486" y1="-0.5" x2="95.2486" y2="91.74" gradientUnits="userSpaceOnUse">
<stop stop-color="#00D1FF"/>
<stop offset="1" stop-color="#F72FFB"/>
</linearGradient>
</defs>
</svg>
