<svg width="200" height="200" viewBox="0 0 200 200" fill="none" xmlns="http://www.w3.org/2000/svg">
<g clip-path="url(#clip0)">
<rect width="200" height="200" fill="#2C2B32"/>
<path d="M106.704 73.7607C103.055 73.266 99.8389 73.0186 97.0557 73.0186C86.9124 73.0186 80.2637 76.4512 77.1094 83.3164V149H50.2979V48.6191H75.625L76.3672 60.5869C81.748 51.3714 89.2008 46.7637 98.7256 46.7637C101.694 46.7637 104.478 47.1657 107.075 47.9697L106.704 73.7607ZM148.081 48.6191V154.474C148.081 165.545 145.143 174.142 139.268 180.265C133.392 186.45 124.919 189.542 113.848 189.542C109.209 189.542 104.787 189.016 100.581 187.965V166.72C103.797 167.276 106.611 167.555 109.023 167.555C117.126 167.555 121.177 163.256 121.177 154.659V48.6191H148.081ZM119.043 22.6426C119.043 18.6224 120.373 15.3135 123.032 12.7158C125.754 10.1182 129.434 8.81934 134.072 8.81934C138.711 8.81934 142.36 10.1182 145.02 12.7158C147.741 15.3135 149.102 18.6224 149.102 22.6426C149.102 26.7246 147.71 30.0645 144.927 32.6621C142.205 35.2598 138.587 36.5586 134.072 36.5586C129.557 36.5586 125.908 35.2598 123.125 32.6621C120.404 30.0645 119.043 26.7246 119.043 22.6426Z" fill="white"/>
<mask id="mask0" mask-type="alpha" maskUnits="userSpaceOnUse" x="50" y="8" width="100" height="182">
<path d="M106.704 73.7607C103.055 73.266 99.8389 73.0186 97.0557 73.0186C86.9124 73.0186 80.2637 76.4512 77.1094 83.3164V149H50.2979V48.6191H75.625L76.3672 60.5869C81.748 51.3714 89.2008 46.7637 98.7256 46.7637C101.694 46.7637 104.478 47.1657 107.075 47.9697L106.704 73.7607ZM148.081 48.6191V154.474C148.081 165.545 145.143 174.142 139.268 180.265C133.392 186.45 124.919 189.542 113.848 189.542C109.209 189.542 104.787 189.016 100.581 187.965V166.72C103.797 167.276 106.611 167.555 109.023 167.555C117.126 167.555 121.177 163.256 121.177 154.659V48.6191H148.081ZM119.043 22.6426C119.043 18.6224 120.373 15.3135 123.032 12.7158C125.754 10.1182 129.434 8.81934 134.072 8.81934C138.711 8.81934 142.36 10.1182 145.02 12.7158C147.741 15.3135 149.102 18.6224 149.102 22.6426C149.102 26.7246 147.71 30.0645 144.927 32.6621C142.205 35.2598 138.587 36.5586 134.072 36.5586C129.557 36.5586 125.908 35.2598 123.125 32.6621C120.404 30.0645 119.043 26.7246 119.043 22.6426Z" fill="white"/>
</mask>
<g mask="url(#mask0)">
<path d="M253 176C204.6 209.2 61.5 89.1667 -4 25L-20.5 35.5L-12.5 214L163.5 284.5C213.5 234.5 301.4 142.8 253 176Z" fill="url(#paint0_linear)"/>
</g>
</g>
<defs>
<linearGradient id="paint0_linear" x1="-0.999993" y1="25" x2="200" y2="25" gradientUnits="userSpaceOnUse">
<stop stop-color="#00D1FF"/>
<stop offset="1" stop-color="#F72FFB"/>
</linearGradient>
<clipPath id="clip0">
<rect width="200" height="200" fill="white"/>
</clipPath>
</defs>
</svg>
